:SAMPLES-PER-SECOND 30
:FRAME-RANGE 1-564
:FULLY-SPECIFIED
:DEGREES
53
root  70.4887 39.2191 144.468 -24.4182 -79.8901 15.0252
RightUpLeg  -3.07947 8.73355 -2.03833
RightLeg  58.17 -2.58064 -4.93807
RightFoot  2.08125 -1.22972 10.5439
RightToes  -1.74624e-010 0 -3.6325e-017
Spine  11.4722 3.31705 0.856027
Spine1  0.709597 4.72974 -10.2697
HEad  18.0329 -2.38792 -3.86706
LeftShoulder1  3.31469 -4.02271 -37.9211
LeftArm  19.2706 4.11021 -25.1061
LeftForeArm  0.419327 -5.34662 -17.8708
LeftHand  -1.31046 -5.51073 14.2078
RightShoulder  9.11201 7.22565 71.3676
RightArm  35.1818 1.09388 -5.44291
RightForeArm  4.57999 12.8438 12.2985
RightHand  1.28883 21.6529 4.97044
LeftUpLeg  4.43723 3.08716 -4.20877
LeftLeg  7.47917 -5.69001 0.369852
LeftFoot  -5.26242 -0.323945 6.69103
LeftToes  -6.43926e-010 8.38805e-011 -3.16407e-011
54
root  69.5774 39.2994 144.892 -17.0419 -78.2708 7.31225
RightUpLeg  -5.96292 6.11768 -1.31234
RightLeg  54.8015 -3.17391 -5.23336
RightFoot  -1.25507 -0.824851 9.23046
RightToes  -1.74624e-010 0 -3.6325e-017
Spine  12.0856 2.16514 0.935388
Spine1  0.158509 3.46493 -9.34836
HEad  18.1037 -2.22945 -3.8178
LeftShoulder1  3.34307 -4.20222 -37.2892
LeftArm  18.4119 0.375424 -26.6021
LeftForeArm  -0.00903154 -6.59408 -17.288
LeftHand  -1.38042 -5.77699 14.601
RightShoulder  8.8791 6.91323 71.574
RightArm  33.2649 0.76022 -5.71398
RightForeArm  6.46384 11.0687 13.3488
RightHand  1.1938 21.2289 4.65158
LeftUpLeg  5.78103 3.53037 -3.37524
LeftLeg  8.35804 -7.86317 0.0745842
LeftFoot  -6.4873 -0.281112 7.54428
LeftToes  -6.43926e-010 8.38805e-011 -3.16407e-011
55
root  68.68 39.4224 145.275 -11.6473 -77.5999 1.72998
RightUpLeg  -8.16594 6.08039 0.504663
RightLeg  48.5912 -5.84924 -7.39293
RightFoot  -3.00601 -0.641225 8.50262
RightToes  -1.74624e-010 0 -3.6325e-017
Spine  12.891 1.72152 0.783431
Spine1  -0.766089 2.81153 -7.52723
HEad  18.0107 -2.2275 -4.11833
LeftShoulder1  3.42061 -4.40197 -37.1796
LeftArm  18.8421 -3.54891 -27.8132
LeftForeArm  -1.14065 -7.78702 -16.7953
LeftHand  -1.45768 -6.38345 14.6324
RightShoulder  8.42209 6.41569 71.3504
RightArm  30.915 0.593479 -5.87989
RightForeArm  9.16949 9.05696 14.2938
RightHand  1.35854 21.4313 5.31554
LeftUpLeg  7.55565 3.80443 -2.424
LeftLeg  8.02558 -8.91743 0.15489
LeftFoot  -7.27368 -0.235191 7.84535
LeftToes  -6.43926e-010 8.38805e-011 -3.16407e-011
56
root  67.7847 39.5524 145.626 -6.99931 -77.1606 -3.02223
RightUpLeg  -8.83935 6.81599 2.34444
RightLeg  38.4741 -9.24339 -8.05505
RightFoot  -3.31389 -0.549168 7.4932
RightToes  -1.74624e-010 0 -3.6325e-017
Spine  12.9427 1.53735 0.854048
Spine1  -0.620262 2.52795 -5.87668
HEad  17.7499 -2.67589 -4.4447
LeftShoulder1  3.49594 -4.63722 -36.8671
LeftArm  20.3485 -7.53381 -29.3411
LeftForeArm  -2.54832 -8.9156 -16.366
LeftHand  -1.61365 -6.23992 16.3346
RightShoulder  8.13191 6.1253 71.0459
RightArm  27.7351 0.235246 -5.93575
RightForeArm  11.7943 7.01925 14.9776
RightHand  1.35263 21.162 5.35132
LeftUpLeg  9.56644 3.83131 -1.67388
LeftLeg  6.94718 -9.15861 0.738804
LeftFoot  -7.37287 -0.254026 8.5989
LeftToes  -6.43926e-010 8.38805e-011 -3.16407e-011
57
root  66.861 39.6816 145.956 -4.88126 -76.7046 -5.10092
RightUpLeg  -7.68823 8.05748 2.86045
RightLeg  24.8453 -9.82462 -5.1442
RightFoot  -2.27565 -0.571568 7.00443
RightToes  -1.74624e-010 0 -3.6325e-017
Spine  12.7475 1.29548 0.757213
Spine1  -0.510462 2.24412 -5.22893
HEad  18.0614 -2.94342 -4.27621
LeftShoulder1  3.53668 -4.83881 -36.3355
LeftArm  21.2196 -10.6222 -30.6915
LeftForeArm  -2.76614 -9.60914 -16.0403
LeftHand  -1.69593 -5.46953 18.303
RightShoulder  7.77306 5.67773 71.1853
RightArm  26.6026 0.17686 -6.05791
RightForeArm  12.2722 5.43743 15.607
RightHand  1.39276 21.028 5.55635
LeftUpLeg  11.7582 4.33538 -0.991666
LeftLeg  5.4257 -10.0552 0.82718
LeftFoot  -7.42076 -0.236564 8.20461
LeftToes  -6.43926e-010 8.38805e-011 -3.16407e-011
58
root  65.803 39.6276 146.286 -5.12964 -75.9913 -4.70306
RightUpLeg  -4.72788 7.2038 3.97385
RightLeg  9.16377 -9.23006 -3.6088
RightFoot  0.495617 -0.759448 7.34832
RightToes  -1.74624e-010 0 -3.6325e-017
Spine  11.498 1.07942 0.0898351
Spine1  0.354836 1.93398 -4.96913
HEad  18.7629 -3.23522 -4.255
LeftShoulder1  3.57951 -5.0427 -35.8398
LeftArm  21.2607 -13.3838 -31.6897
LeftForeArm  -1.48626 -9.44251 -16.0919
LeftHand  -1.72433 -6.59222 16.9259
RightShoulder  7.43464 5.26978 71.2386
RightArm  25.2423 -0.213934 -6.13195
RightForeArm  13.3877 4.27514 15.8892
RightHand  1.49308 21.0673 5.9817
LeftUpLeg  13.193 4.71485 -0.907036
LeftLeg  5.9113 -11.0827 0.790457
LeftFoot  -9.11962 -0.0854071 7.22888
LeftToes  -6.43926e-010 8.38805e-011 -3.16407e-011
59
root  64.7047 39.4567 146.623 -6.71755 -75.3635 -2.77424
RightUpLeg  -2.13607 4.1301 4.17682
RightLeg  -4.15776 -6.54653 -2.36199
RightFoot  2.97603 -1.01449 8.22614
RightToes  -1.74624e-010 0 -3.6325e-017
Spine  10.5094 0.816835 -0.748239
Spine1  0.264604 1.61124 -5.01061
HEad  19.9584 -3.33162 -4.25185
LeftShoulder1  3.57113 -5.18066 -35.0949
LeftArm  22.2347 -14.8354 -32.7614
LeftForeArm  -3.81486 -9.89512 -15.9869
LeftHand  -1.65597 -6.74639 16.0789
RightShoulder  6.88391 4.63831 71.112
RightArm  26.0774 -0.538032 -6.05231
RightForeArm  13.0982 3.88078 16.1369
RightHand  1.55157 21.15 6.21332
LeftUpLeg  14.3488 5.15629 -1.14775
LeftLeg  6.83831 -11.884 0.468724
LeftFoot  -10.7712 0.0272375 7.55641
LeftToes  -6.43926e-010 8.38805e-011 -3.16407e-011
